{"title":"The Originals S03E01 1080p WEB-DL","uid":12539898,"size":1664796115,"categoryP":"video","categoryS":"hd___tv_shows","magnet":"?xt=urn:btih:22a57ee71754a0222c639b0cfb3fa467927ccdec&amp;dn=The+Originals+S03E01+1080p+WEB-DL&amp;tr=udp%3A%2F%2Ftracker.leechers-paradise.org%3A6969&amp;tr=udp%3A%2F%2Fzer0day.ch%3A1337&amp;tr=udp%3A%2F%2Fopen.demonii.com%3A1337&amp;tr=udp%3A%2F%2Ftracker.coppersurfer.tk%3A6969&amp;tr=udp%3A%2F%2Fexodus.desync.com%3A6969","seeders":0,"leechers":1,"uploader":"Joker__TPB","files":5,"time":1444383301,"description":"===================================================================\r\nA spin-off from The Vampire Diaries and set in New Orleans| The Originals centers on the Mikaelson siblings| otherwise known as the world's original vampires: Klaus\r\n(Joseph Morgan)| Elijah (Daniel Gillies)| and Rebekah (Claire Holt). Now Klaus must take down his protégé| Marcel (Charles Michael Davis)| who is now in charge of\r\nNew Orleans| in order to re-take his city| as he originally built New Orleans. Klaus departed from the city after being chased down by his father Mikael| while it\r\nwas being constructed and Marcel took charge. As Klaus has returned after many years| his ego has provoked him to become the king of the city. &quot;Every King needs an\r\nheir&quot; says Klaus| accepting the unborn child. The child is a first to be born to a hybrid (part vampire| part werewolf) and a werewolf (Hayley).\r\n===================================================================\r\nscreens: \nhttp://extraimago.com/image/3jF \nhttp://extraimago.com/image/3jH \nhttp://extraimago.com/image/3jk \nhttp://extraimago.com/image/3jo\r\n===================================================================\r\nmedia info:\r\nVideo\r\nID                                       : 2\r\nFormat                                   : AVC\r\nFormat/Info                              : Advanced Video Codec\r\nFormat profile                           :   \r\nFormat settings, CABAC                   : Yes\r\nFormat settings, ReFrames                : 4 frames\r\nCodec ID                                 : V_MPEG4/ISO/AVC\r\nDuration                                 : 42mn 33s\r\nBit rate                                 : 4 726 Kbps\r\nWidth                                    : 1 916 pixels\r\nHeight                                   : 1 076 pixels\r\nDisplay aspect ratio                     : 16:9\r\nFrame rate mode                          : Constant\r\nFrame rate                               : 23.976 fps\r\nColor space                              : YUV\r\nChroma subsampling                       : 4:2:0\r\nBit depth                                : 8 bits\r\nScan type                                : Progressive\r\nBits/(Pixel*Frame)                       : 0.096\r\nStream size                              : 1.40 GiB (91%)\r\nLanguage                                 : English\r\nDefault                                  : Yes\r\nForced                                   : No\r\nColor range                              : Limited\r\nColor primaries                          : BT.709\r\nTransfer characteristics                 : BT.709\r\nMatrix coefficients                      : BT.709\r\n\r\nAudio\r\nID                                       : 1\r\nFormat                                   : AC-3\r\nFormat/Info                              : Audio Coding 3\r\nMode extension                           : CM (complete main)\r\nFormat settings, Endianness              : Big\r\nCodec ID                                 : A_AC3\r\nDuration                                 : 42mn 33s\r\nBit rate mode                            : Constant\r\nBit rate                                 : 384 Kbps\r\nChannel(s)                               : 6 channels\r\nChannel positions                        : Front: L C R, Side: L R, LFE\r\nSampling rate                            : 48.0 KHz\r\nCompression mode                         : Lossy\r\nStream size                              : 117 MiB (7%)\r\nLanguage                                 : English\r\nDefault                                  : Yes\r\nForced                                   : No\r\n\r\nText\r\nID                                       : 3\r\nFormat                                   : UTF-8\r\nCodec ID                                 : S_TEXT/UTF8\r\nCodec ID/Info                            : UTF-8 Plain Text\r\nLanguage                                 : English\r\nDefault                                  : Yes\r\nForced                                   : No\r\n\r\n===================================================================","torrent":{"xt":"urn:btih:22a57ee71754a0222c639b0cfb3fa467927ccdec","amp;dn":"The+Originals+S03E01+1080p+WEB-DL","amp;tr":["udp%3A%2F%2Ftracker.leechers-paradise.org%3A6969","udp%3A%2F%2Fzer0day.ch%3A1337","udp%3A%2F%2Fopen.demonii.com%3A1337","udp%3A%2F%2Ftracker.coppersurfer.tk%3A6969","udp%3A%2F%2Fexodus.desync.com%3A6969"],"infoHash":"22a57ee71754a0222c639b0cfb3fa467927ccdec","infoHashBuffer":{"type":"Buffer","data":[34,165,126,231,23,84,160,34,44,99,155,12,251,63,164,103,146,124,205,236]},"announce":[],"urlList":[]}}